<?xml version="1.0" encoding="utf-8"?>
<!-- Generator: Adobe Illustrator 16.0.3, SVG Export Plug-In . SVG Version: 6.00 Build 0)  -->
<!DOCTYPE svg PUBLIC "-//W3C//DTD SVG 1.1//EN" "http://www.w3.org/Graphics/SVG/1.1/DTD/svg11.dtd">
<svg version="1.1" id="Layer_1" xmlns="http://www.w3.org/2000/svg" xmlns:xlink="http://www.w3.org/1999/xlink" x="0px" y="0px"
	 width="87.861px" height="30.459px" viewBox="0 0 87.861 30.459" enable-background="new 0 0 87.861 30.459" xml:space="preserve">
<g id="Layer_1_1_">
	<g>
		<g>
			<g>
				<path fill="#FFFFFF" d="M3.641,8.503c2.138-4.24,6.405-6.929,11.808-6.929c7.854,0,13.309,5.689,13.309,13.563
					c0,7.877-5.932,13.278-13.309,13.563c-5.744,0.222-7.869-1.7-10.229-4.522l-0.053-0.052c-0.029-0.04-0.046-0.063-0.067-0.086
					c-0.152-0.189-0.431-0.222-0.621-0.066c-0.153,0.124-0.202,0.329-0.135,0.503l0.076,0.134c1.409,1.466,3.727,5.792,12.083,5.848
					c8.357,0.054,14.945-6.387,14.945-15.229C31.446,6.386,25.321,0,16.501,0C10.221,0,5.308,3.236,2.998,8.295L2.886,8.553
					C2.881,8.576,2.879,8.602,2.879,8.625c0,0.184,0.148,0.334,0.333,0.334c0.148,0,0.276-0.098,0.317-0.233L3.641,8.503z"/>
				<path fill="#FFFFFF" d="M34.813,0.779h3.457L55.793,26.05h0.082V0.779h2.681v28.856h-3.454L37.579,4.366h-0.083v25.27h-2.684
					L34.813,0.779L34.813,0.779z"/>
				<path fill="#FFFFFF" d="M64.585,0.779h17.601v2.447h-14.92v10.27h13.988v2.447H67.266v11.25H82.84v2.444H64.585V0.779
					L64.585,0.779z"/>
			</g>
		</g>
		<g>
			<g>
				<path fill="#FFFFFF" d="M1.813,19.753C0.818,19.753,0,18.933,0,17.935v-2.24c0-1.021,0.818-1.841,1.813-1.841h0.598v-2.261
					c0-0.31-0.266-0.577-0.598-0.577H1.371c-0.331,0-0.62-0.288-0.62-0.62c0-0.355,0.289-0.621,0.62-0.621h0.443
					c1.017,0,1.813,0.82,1.813,1.817v8.16C3.627,19.753,2.831,19.753,1.813,19.753z M2.411,15.097H1.813
					c-0.31,0-0.597,0.266-0.597,0.599v2.241c0,0.31,0.288,0.575,0.597,0.575c0.332,0,0.598,0,0.598,0V15.097z"/>
				<path fill="#FFFFFF" d="M8.559,15.916v2.151c0,1.02-0.818,1.841-1.813,1.841c-1.017,0-1.813-0.82-1.813-1.841v-0.686
					c0-0.335,0.266-0.601,0.598-0.601c0.354,0,0.619,0.266,0.619,0.601v0.686c0,0.333,0.266,0.6,0.598,0.6
					c0.309,0,0.597-0.267,0.597-0.6v-2.151c0-0.332-0.288-0.597-0.597-0.597c-1.018,0-1.813-0.82-1.813-1.82v-2.04
					c0-1.02,0.795-1.84,1.813-1.84c0.995,0,1.813,0.82,1.813,1.84v0.687c0,0.334-0.266,0.6-0.62,0.6c-0.332,0-0.597-0.266-0.597-0.6
					v-0.687c0-0.332-0.288-0.599-0.598-0.599c-0.333,0-0.597,0.267-0.597,0.599v2.04c0,0.311,0.264,0.577,0.597,0.577
					C7.74,14.076,8.559,14.896,8.559,15.916z"/>
				<path fill="#FFFFFF" d="M11.678,19.753H11.08v3.836c0,0.354-0.266,0.621-0.597,0.621c-0.354,0-0.62-0.267-0.62-0.621V9.775
					c0,0,0.818,0,1.813,0c1.018,0,1.814,0.821,1.814,1.819v6.343C13.491,18.933,12.694,19.753,11.678,19.753z M12.275,11.593
					c0-0.31-0.267-0.576-0.598-0.576c-0.31,0-0.597,0-0.597,0v7.495h0.597c0.332,0,0.598-0.269,0.598-0.575V11.593z"/>
				<path fill="#FFFFFF" d="M16.057,18.067c0,0.333,0.286,0.6,0.596,0.6c0.333,0,0.598-0.267,0.598-0.6v-0.177
					c0-0.354,0.266-0.621,0.618-0.621c0.333,0,0.598,0.267,0.598,0.621v0.177c0,1.02-0.797,1.841-1.813,1.841
					c-0.996,0-1.814-0.82-1.814-1.841V11.46c0-1.021,0.818-1.841,1.814-1.841c1.017,0,1.813,0.82,1.813,1.841v4.279h-2.411V18.067
					L16.057,18.067z M17.251,11.46c0-0.333-0.266-0.6-0.597-0.6c-0.31,0-0.597,0.267-0.597,0.6v3.039h1.194V11.46L17.251,11.46z"/>
				<path fill="#FFFFFF" d="M20.436,19.907c-0.354,0-0.619-0.288-0.619-0.62V11.46c0-1.021,0.817-1.841,1.813-1.841
					c1.018,0,1.813,0.82,1.813,1.841c0,0.177,0,7.826,0,7.826c0,0.333-0.266,0.621-0.598,0.621c-0.354,0-0.619-0.288-0.619-0.621
					V11.46c0-0.333-0.265-0.6-0.597-0.6c-0.31,0-0.598,0.267-0.598,0.6c0,0.066,0,7.826,0,7.826
					C21.032,19.619,20.767,19.907,20.436,19.907z"/>
			</g>
		</g>
		<g>
			<path fill="#FFFFFF" d="M86.38,26.872c0.255,0,0.497,0.061,0.731,0.189c0.233,0.128,0.418,0.311,0.551,0.547
				c0.133,0.237,0.199,0.486,0.199,0.746c0,0.258-0.065,0.504-0.196,0.738s-0.313,0.417-0.548,0.548
				c-0.234,0.132-0.48,0.198-0.737,0.198c-0.259,0-0.505-0.066-0.738-0.198c-0.235-0.131-0.417-0.313-0.548-0.548
				s-0.197-0.48-0.197-0.738c0-0.26,0.066-0.509,0.199-0.746c0.133-0.238,0.317-0.421,0.552-0.547
				C85.881,26.935,86.125,26.872,86.38,26.872z M86.381,27.163c-0.203,0-0.398,0.051-0.586,0.152
				c-0.187,0.104-0.335,0.25-0.441,0.439c-0.109,0.191-0.162,0.391-0.162,0.602c0,0.207,0.053,0.405,0.158,0.594
				c0.104,0.188,0.252,0.336,0.44,0.441c0.188,0.104,0.386,0.158,0.592,0.158c0.207,0,0.406-0.053,0.594-0.158
				s0.335-0.253,0.441-0.441c0.104-0.187,0.157-0.387,0.157-0.594c0-0.211-0.053-0.408-0.16-0.602
				c-0.107-0.189-0.255-0.338-0.445-0.439C86.78,27.214,86.585,27.163,86.381,27.163z M85.708,29.148v-1.571h0.32
				c0.299,0,0.469,0.002,0.504,0.004c0.104,0.009,0.188,0.029,0.246,0.062c0.06,0.033,0.108,0.085,0.147,0.151
				c0.039,0.067,0.059,0.143,0.059,0.226c0,0.113-0.035,0.21-0.111,0.292c-0.074,0.079-0.179,0.131-0.313,0.148
				c0.048,0.019,0.085,0.039,0.109,0.059c0.027,0.021,0.063,0.063,0.105,0.121c0.013,0.016,0.051,0.08,0.117,0.191l0.188,0.317
				h-0.393l-0.134-0.255c-0.09-0.173-0.162-0.281-0.221-0.324c-0.059-0.045-0.132-0.068-0.221-0.068h-0.084v0.647H85.708
				L85.708,29.148z M86.028,28.255h0.13c0.187,0,0.301-0.008,0.346-0.021s0.079-0.039,0.105-0.075
				c0.025-0.034,0.038-0.075,0.038-0.119c0-0.045-0.013-0.082-0.038-0.117c-0.024-0.034-0.062-0.059-0.107-0.073
				c-0.047-0.014-0.159-0.022-0.344-0.022h-0.13V28.255L86.028,28.255z"/>
		</g>
	</g>
</g>
</svg>
