<?xml version="1.0" encoding="utf-8"?>
<!-- Generator: Adobe Illustrator 16.0.3, SVG Export Plug-In . SVG Version: 6.00 Build 0)  -->
<!DOCTYPE svg PUBLIC "-//W3C//DTD SVG 1.1//EN" "http://www.w3.org/Graphics/SVG/1.1/DTD/svg11.dtd">
<svg version="1.1" id="Layer_1" xmlns="http://www.w3.org/2000/svg" xmlns:xlink="http://www.w3.org/1999/xlink" x="0px" y="0px"
	 width="30.582px" height="29.918px" viewBox="0 0 30.582 29.918" enable-background="new 0 0 30.582 29.918" xml:space="preserve">
<g>
	<g>
		<path fill="#363635" d="M13.801,0.474c-0.209,0.024-0.379,0.22-0.379,0.434v6.508c0,0.216,0.168,0.354,0.375,0.309
			c0,0,1.076-0.233,1.847-0.233c0.772,0,1.844,0.233,1.844,0.233c0.208,0.043,0.378-0.095,0.378-0.311V0.909
			c0-0.214-0.17-0.411-0.382-0.434c0,0-1.083-0.122-1.837-0.122C14.887,0.354,13.801,0.474,13.801,0.474z"/>
		<path fill="#363635" d="M13.801,0.474c-0.209,0.024-0.379,0.22-0.379,0.434v6.508c0,0.216,0.168,0.354,0.375,0.309
			c0,0,1.076-0.233,1.847-0.233c0.772,0,1.844,0.233,1.844,0.233c0.208,0.043,0.378-0.095,0.378-0.311V0.909
			c0-0.214-0.17-0.411-0.382-0.434c0,0-1.083-0.122-1.837-0.122C14.887,0.354,13.801,0.474,13.801,0.474z"/>
	</g>
	<g>
		<path fill="#363635" d="M1.257,17.034c0.024,0.213,0.216,0.389,0.428,0.389h6.384c0.211,0,0.349-0.174,0.305-0.383
			c0,0-0.229-1.097-0.229-1.882c0-0.787,0.227-1.881,0.227-1.881c0.045-0.21-0.092-0.382-0.303-0.382H1.684
			c-0.21,0-0.402,0.175-0.428,0.388c0,0-0.119,1.105-0.119,1.874C1.137,15.928,1.257,17.034,1.257,17.034z"/>
		<path fill="#363635" d="M1.257,17.034c0.024,0.213,0.216,0.389,0.428,0.389h6.384c0.211,0,0.349-0.174,0.305-0.383
			c0,0-0.229-1.097-0.229-1.882c0-0.787,0.227-1.881,0.227-1.881c0.045-0.21-0.092-0.382-0.303-0.382H1.684
			c-0.21,0-0.402,0.175-0.428,0.388c0,0-0.119,1.105-0.119,1.874C1.137,15.928,1.257,17.034,1.257,17.034z"/>
	</g>
	<g>
		<g>
			<path fill="#363635" d="M15.644,0.744c-7.813,0-14.147,6.453-14.147,14.416c0,7.96,6.335,14.413,14.149,14.413
				c7.807,0,14.144-6.453,14.144-14.413C29.789,7.197,23.452,0.744,15.644,0.744z M15.644,22.994c-4.247,0-7.689-3.509-7.689-7.835
				s3.442-7.833,7.689-7.833c4.245,0,7.688,3.506,7.688,7.833C23.332,19.485,19.889,22.994,15.644,22.994z"/>
			<path fill="#363635" d="M16.006,0.747c-7.814,0-14.149,6.452-14.149,14.416c0,7.961,6.335,14.414,14.151,14.414
				c7.807,0,14.143-6.453,14.143-14.414C30.15,7.199,23.813,0.747,16.006,0.747z M16.006,22.996c-4.248,0-7.689-3.508-7.689-7.833
				c0-4.328,3.441-7.836,7.689-7.836c4.244,0,7.688,3.507,7.688,7.836C23.693,19.488,20.25,22.996,16.006,22.996z"/>
		</g>
		<g>
			<path fill="#363635" d="M17.483,29.796c0.21-0.023,0.382-0.219,0.382-0.435v-6.506c0-0.214-0.17-0.354-0.375-0.309
				c0,0-1.076,0.233-1.845,0.233c-0.775,0-1.847-0.233-1.847-0.233c-0.207-0.044-0.379,0.095-0.379,0.31v6.505
				c0,0.218,0.172,0.41,0.381,0.435c0,0,1.084,0.122,1.84,0.122C16.396,29.919,17.483,29.796,17.483,29.796z"/>
			<path fill="#363635" d="M17.483,29.796c0.21-0.023,0.382-0.219,0.382-0.435v-6.506c0-0.214-0.17-0.354-0.375-0.309
				c0,0-1.076,0.233-1.845,0.233c-0.775,0-1.847-0.233-1.847-0.233c-0.207-0.044-0.379,0.095-0.379,0.31v6.505
				c0,0.218,0.172,0.41,0.381,0.435c0,0,1.084,0.122,1.84,0.122C16.396,29.919,17.483,29.796,17.483,29.796z"/>
		</g>
		<g>
			<path fill="#363635" d="M30.461,13.285c-0.023-0.213-0.215-0.389-0.427-0.389H23.65c-0.213,0-0.348,0.173-0.302,0.383
				c0,0,0.227,1.095,0.227,1.881s-0.227,1.88-0.227,1.88c-0.046,0.212,0.09,0.384,0.302,0.384h6.383
				c0.209,0,0.404-0.176,0.428-0.389c0,0,0.121-1.104,0.121-1.873C30.582,14.392,30.461,13.285,30.461,13.285z"/>
			<path fill="#363635" d="M30.461,13.285c-0.023-0.213-0.215-0.389-0.427-0.389H23.65c-0.213,0-0.348,0.173-0.302,0.383
				c0,0,0.227,1.095,0.227,1.881s-0.227,1.88-0.227,1.88c-0.046,0.212,0.09,0.384,0.302,0.384h6.383
				c0.209,0,0.404-0.176,0.428-0.389c0,0,0.121-1.104,0.121-1.873C30.582,14.392,30.461,13.285,30.461,13.285z"/>
		</g>
		<g>
			<g>
				<radialGradient id="SVGID_1_" cx="14.3403" cy="14.3618" r="13.8364" gradientUnits="userSpaceOnUse">
					<stop  offset="0.2956" style="stop-color:#999999"/>
					<stop  offset="0.3777" style="stop-color:#9D9D9D"/>
					<stop  offset="0.4527" style="stop-color:#A8A8A8"/>
					<stop  offset="0.525" style="stop-color:#BABABA"/>
					<stop  offset="0.5955" style="stop-color:#D4D4D4"/>
					<stop  offset="0.6643" style="stop-color:#F6F6F6"/>
					<stop  offset="0.6749" style="stop-color:#FCFCFC"/>
					<stop  offset="0.7685" style="stop-color:#F7F7F7"/>
					<stop  offset="0.8867" style="stop-color:#FFFFFF"/>
					<stop  offset="0.9056" style="stop-color:#F9F9F9"/>
					<stop  offset="0.9298" style="stop-color:#EAEAEA"/>
					<stop  offset="0.9569" style="stop-color:#CFCFCF"/>
					<stop  offset="0.9858" style="stop-color:#ABABAB"/>
					<stop  offset="1" style="stop-color:#969696"/>
				</radialGradient>
				<path fill="url(#SVGID_1_)" d="M14.342,0.525c-7.643,0-13.838,6.194-13.838,13.837c0,7.641,6.195,13.836,13.838,13.836
					c7.639,0,13.835-6.195,13.835-13.836C28.177,6.72,21.98,0.525,14.342,0.525z M14.342,21.882c-4.156,0-7.521-3.367-7.521-7.52
					c0-4.155,3.365-7.52,7.521-7.52c4.152,0,7.519,3.365,7.519,7.52C21.86,18.515,18.494,21.882,14.342,21.882z"/>
				<path fill="none" stroke="#B6B6B6" stroke-width="0.2751" stroke-miterlimit="10" d="M14.342,0.525
					c-7.643,0-13.838,6.194-13.838,13.837c0,7.641,6.195,13.836,13.838,13.836c7.639,0,13.835-6.195,13.835-13.836
					C28.177,6.72,21.98,0.525,14.342,0.525z M14.342,21.882c-4.156,0-7.521-3.367-7.521-7.52c0-4.155,3.365-7.52,7.521-7.52
					c4.152,0,7.519,3.365,7.519,7.52C21.86,18.515,18.494,21.882,14.342,21.882z"/>
			</g>
			<g>
				<path fill="#333333" d="M12.439,0.278c-0.15,0.017-0.273,0.154-0.273,0.306V7.03c0,0.151,0.121,0.25,0.27,0.218
					c0,0,1.148-0.245,1.906-0.245c0.752,0,1.902,0.243,1.902,0.243c0.148,0.032,0.27-0.066,0.27-0.218V0.584
					c0-0.151-0.123-0.289-0.273-0.306c0,0-1.162-0.129-1.898-0.129C13.602,0.149,12.439,0.278,12.439,0.278z"/>
				<path fill="none" stroke="#878787" stroke-width="0.2984" stroke-miterlimit="10" d="M12.439,0.278
					c-0.15,0.017-0.273,0.154-0.273,0.306V7.03c0,0.151,0.121,0.25,0.27,0.218c0,0,1.148-0.245,1.906-0.245
					c0.752,0,1.902,0.243,1.902,0.243c0.148,0.032,0.27-0.066,0.27-0.218V0.584c0-0.151-0.123-0.289-0.273-0.306
					c0,0-1.162-0.129-1.898-0.129C13.602,0.149,12.439,0.278,12.439,0.278z"/>
			</g>
			<g>
				<path fill="#333333" d="M16.24,28.4c0.15-0.017,0.273-0.154,0.273-0.306v-6.447c0-0.151-0.121-0.249-0.27-0.217
					c0,0-1.15,0.245-1.902,0.245c-0.758,0-1.906-0.244-1.906-0.244c-0.148-0.031-0.27,0.066-0.27,0.218v6.445
					c0,0.151,0.123,0.289,0.273,0.306c0,0,1.162,0.128,1.902,0.128C15.078,28.528,16.24,28.4,16.24,28.4z"/>
				<path fill="none" stroke="#878787" stroke-width="0.2984" stroke-miterlimit="10" d="M16.24,28.4
					c0.15-0.017,0.273-0.154,0.273-0.306v-6.447c0-0.151-0.121-0.249-0.27-0.217c0,0-1.15,0.245-1.902,0.245
					c-0.758,0-1.906-0.244-1.906-0.244c-0.148-0.031-0.27,0.066-0.27,0.218v6.445c0,0.151,0.123,0.289,0.273,0.306
					c0,0,1.162,0.128,1.902,0.128C15.078,28.528,16.24,28.4,16.24,28.4z"/>
			</g>
			<g>
				<path fill="#333333" d="M28.4,12.463c-0.017-0.15-0.154-0.273-0.306-0.273h-6.445c-0.151,0-0.249,0.121-0.218,0.269
					c0,0,0.244,1.15,0.244,1.904c0,0.752-0.244,1.905-0.244,1.905c-0.031,0.148,0.067,0.269,0.219,0.269h6.444
					c0.151,0,0.289-0.123,0.306-0.273c0,0,0.129-1.163,0.129-1.9C28.529,13.624,28.4,12.463,28.4,12.463z"/>
				<path fill="none" stroke="#878787" stroke-width="0.2984" stroke-miterlimit="10" d="M28.4,12.463
					c-0.017-0.15-0.154-0.273-0.306-0.273h-6.445c-0.151,0-0.249,0.121-0.218,0.269c0,0,0.244,1.15,0.244,1.904
					c0,0.752-0.244,1.905-0.244,1.905c-0.031,0.148,0.067,0.269,0.219,0.269h6.444c0.151,0,0.289-0.123,0.306-0.273
					c0,0,0.129-1.163,0.129-1.9C28.529,13.624,28.4,12.463,28.4,12.463z"/>
			</g>
			<g>
				<path fill="#333333" d="M0.278,16.263c0.017,0.15,0.154,0.273,0.306,0.273H7.03c0.151,0,0.249-0.121,0.218-0.269
					c0,0-0.245-1.152-0.245-1.905c0-0.754,0.245-1.904,0.245-1.904c0.031-0.148-0.067-0.269-0.219-0.269H0.584
					c-0.151,0-0.289,0.123-0.306,0.273c0,0-0.129,1.159-0.129,1.899C0.149,15.099,0.278,16.263,0.278,16.263z"/>
				<path fill="none" stroke="#878787" stroke-width="0.2984" stroke-miterlimit="10" d="M0.278,16.263
					c0.017,0.15,0.154,0.273,0.306,0.273H7.03c0.151,0,0.249-0.121,0.218-0.269c0,0-0.245-1.152-0.245-1.905
					c0-0.754,0.245-1.904,0.245-1.904c0.031-0.148-0.067-0.269-0.219-0.269H0.584c-0.151,0-0.289,0.123-0.306,0.273
					c0,0-0.129,1.159-0.129,1.899C0.149,15.099,0.278,16.263,0.278,16.263z"/>
			</g>
		</g>
	</g>
</g>
</svg>
