<?xml version="1.0" encoding="utf-8"?>
<!-- Generator: Adobe Illustrator 16.0.3, SVG Export Plug-In . SVG Version: 6.00 Build 0)  -->
<!DOCTYPE svg PUBLIC "-//W3C//DTD SVG 1.1//EN" "http://www.w3.org/Graphics/SVG/1.1/DTD/svg11.dtd">
<svg version="1.1" id="Layer_1" xmlns="http://www.w3.org/2000/svg" xmlns:xlink="http://www.w3.org/1999/xlink" x="0px" y="0px"
	 width="21.7px" height="21.7px" viewBox="0 0 21.7 21.7" enable-background="new 0 0 21.7 21.7" xml:space="preserve">
<path fill="#FFFFFF" stroke="#FFFFFF" stroke-width="0.7" stroke-miterlimit="10" d="M2.414,12.202
	c2.413,2.374,6.099,2.541,8.698,0.561l1.316,1.3l-0.027,0.026c-0.045,0.049-0.045,0.127,0.008,0.179
	c0.045,0.048,0.125,0.046,0.172-0.005l0.031-0.029c-0.031,0.105-0.006,0.225,0.076,0.309l6.826,6.722
	c0.121,0.12,0.316,0.114,0.43-0.011l1.322-1.396c0.115-0.123,0.11-0.321-0.01-0.438l-6.826-6.724c-0.086-0.08-0.202-0.1-0.307-0.064
	l0.082-0.09c0.047-0.049,0.047-0.127-0.004-0.174c-0.049-0.049-0.125-0.049-0.174,0l-0.049,0.051l-1.322-1.297
	c1.824-2.727,1.518-6.474-0.887-8.844c-2.682-2.64-6.951-2.556-9.535,0.186C-0.347,5.197-0.267,9.562,2.414,12.202z M3.07,3.28
	c2.142-2.271,5.677-2.335,7.9-0.149c2.217,2.185,2.287,5.798,0.145,8.069c-2.141,2.27-5.676,2.336-7.899,0.148
	C0.998,9.163,0.93,5.552,3.07,3.28z"/>
</svg>
