<?xml version="1.0" encoding="utf-8"?>
<!-- Generator: Adobe Illustrator 16.0.3, SVG Export Plug-In . SVG Version: 6.00 Build 0)  -->
<!DOCTYPE svg PUBLIC "-//W3C//DTD SVG 1.1//EN" "http://www.w3.org/Graphics/SVG/1.1/DTD/svg11.dtd">
<svg version="1.1" id="Layer_1" xmlns="http://www.w3.org/2000/svg" xmlns:xlink="http://www.w3.org/1999/xlink" x="0px" y="0px"
	 width="28.322px" height="30.056px" viewBox="0 0 28.322 30.056" enable-background="new 0 0 28.322 30.056" xml:space="preserve">
<g>
	<g>
		<g>
			<g>
				<g>
					<g>
						<path fill="#353535" d="M16.603,9.843c0,0,0.24-0.033,0.66-0.087c0.428-0.073,1.023-0.107,1.749-0.125
							c1.429,0,3.37,0.276,5.01,1.341c0.815,0.523,1.552,1.212,2.138,1.973c0.256,0.396,0.553,0.775,0.74,1.178
							c0.106,0.2,0.207,0.396,0.306,0.584c0.08,0.197,0.157,0.388,0.231,0.571c0.164,0.368,0.256,0.723,0.352,1.038
							c0.104,0.313,0.168,0.594,0.209,0.824c0.098,0.469,0.152,0.736,0.152,0.736s0.033-0.273,0.09-0.746
							c0.035-0.24,0.063-0.533,0.064-0.869c0.01-0.338,0.037-0.726-0.004-1.145c-0.015-0.212-0.029-0.434-0.043-0.662
							c-0.037-0.229-0.074-0.466-0.113-0.709c-0.06-0.494-0.234-0.996-0.383-1.533c-0.366-1.053-0.957-2.152-1.773-3.142
							c-0.805-1.006-1.871-1.824-2.947-2.467C22.769,6.45,22.5,6.292,22.229,6.149c-0.276-0.124-0.548-0.244-0.812-0.362
							c-0.53-0.255-1.051-0.384-1.534-0.559c-0.964-0.279-1.796-0.469-2.368-0.548c-0.58-0.094-0.912-0.147-0.912-0.147V9.843z"/>
					</g>
				</g>
			</g>
		</g>
		<polygon fill="#353535" points="17.791,12.666 17.791,1.708 12.153,7.02 		"/>
	</g>
	<path fill="#353535" stroke="#353535" stroke-miterlimit="10" d="M2.564,20.406c2.413,2.373,6.099,2.54,8.697,0.562l1.318,1.298
		l-0.027,0.027c-0.045,0.051-0.045,0.127,0.008,0.178c0.045,0.049,0.125,0.046,0.172-0.002l0.031-0.031
		c-0.031,0.105-0.006,0.225,0.076,0.309l6.827,6.722c0.12,0.121,0.316,0.116,0.43-0.01l1.322-1.396
		c0.115-0.123,0.109-0.321-0.01-0.438l-6.827-6.725c-0.086-0.08-0.203-0.1-0.307-0.066l0.082-0.086
		c0.047-0.051,0.047-0.129-0.004-0.176c-0.049-0.049-0.125-0.049-0.174,0l-0.049,0.053l-1.322-1.299
		c1.824-2.725,1.518-6.474-0.887-8.842C9.239,7.843,4.97,7.927,2.386,10.667C-0.196,13.402-0.116,17.766,2.564,20.406z M3.22,11.485
		c2.143-2.27,5.678-2.335,7.9-0.15c2.217,2.185,2.287,5.799,0.145,8.069c-2.141,2.268-5.676,2.336-7.899,0.15
		C1.147,17.365,1.081,13.755,3.22,11.485z"/>
</g>
<g>
	<g>
		<g>
			<g>
				<g>
					<g>
						<path fill="#FFFFFF" d="M16.603,8.135c0,0,0.24-0.033,0.66-0.087c0.428-0.073,1.023-0.107,1.749-0.125
							c1.429,0,3.37,0.276,5.01,1.341c0.815,0.523,1.552,1.212,2.138,1.973c0.256,0.396,0.553,0.775,0.74,1.178
							c0.106,0.2,0.207,0.396,0.306,0.584c0.08,0.197,0.157,0.388,0.231,0.571c0.164,0.368,0.256,0.723,0.352,1.037
							c0.104,0.313,0.168,0.594,0.209,0.825c0.098,0.468,0.152,0.735,0.152,0.735s0.033-0.272,0.09-0.746
							c0.035-0.24,0.063-0.533,0.064-0.868c0.01-0.339,0.037-0.727-0.004-1.146c-0.015-0.212-0.029-0.434-0.043-0.662
							c-0.037-0.229-0.074-0.466-0.113-0.709c-0.06-0.494-0.234-0.996-0.383-1.533c-0.366-1.053-0.957-2.152-1.773-3.142
							c-0.805-1.006-1.871-1.824-2.947-2.467c-0.271-0.153-0.541-0.312-0.812-0.454c-0.276-0.124-0.548-0.244-0.812-0.362
							c-0.53-0.255-1.051-0.384-1.534-0.559c-0.964-0.279-1.796-0.469-2.368-0.548c-0.58-0.094-0.912-0.147-0.912-0.147V8.135z"/>
					</g>
				</g>
			</g>
		</g>
		<polygon fill="#FFFFFF" points="17.791,10.957 17.791,0 12.153,5.312 		"/>
	</g>
	<path fill="#FFFFFF" stroke="#FFFFFF" stroke-width="0.7" stroke-miterlimit="10" d="M2.564,18.698
		c2.413,2.373,6.099,2.54,8.697,0.562l1.318,1.298l-0.027,0.026c-0.045,0.051-0.045,0.128,0.008,0.179
		c0.045,0.048,0.125,0.046,0.172-0.003l0.031-0.031c-0.031,0.106-0.006,0.225,0.076,0.31l6.827,6.722
		c0.12,0.121,0.316,0.116,0.43-0.01l1.322-1.396c0.115-0.123,0.109-0.321-0.01-0.439l-6.827-6.724
		c-0.086-0.08-0.203-0.1-0.307-0.066l0.082-0.086c0.047-0.051,0.047-0.129-0.004-0.176c-0.049-0.049-0.125-0.049-0.174,0
		l-0.049,0.053l-1.322-1.299c1.824-2.726,1.518-6.475-0.887-8.843C9.239,6.134,4.97,6.218,2.386,8.959
		C-0.196,11.694-0.116,16.058,2.564,18.698z M3.22,9.777c2.143-2.27,5.678-2.335,7.9-0.15c2.217,2.185,2.287,5.8,0.145,8.069
		c-2.141,2.268-5.676,2.336-7.899,0.15C1.147,15.657,1.081,12.046,3.22,9.777z"/>
</g>
</svg>
