<?xml version="1.0" encoding="utf-8"?>
<!-- Generator: Adobe Illustrator 16.0.3, SVG Export Plug-In . SVG Version: 6.00 Build 0)  -->
<!DOCTYPE svg PUBLIC "-//W3C//DTD SVG 1.1//EN" "http://www.w3.org/Graphics/SVG/1.1/DTD/svg11.dtd">
<svg version="1.1" id="Layer_1" xmlns="http://www.w3.org/2000/svg" xmlns:xlink="http://www.w3.org/1999/xlink" x="0px" y="0px"
	 width="200.002px" height="29.995px" viewBox="0 0 200.002 29.995" enable-background="new 0 0 200.002 29.995"
	 xml:space="preserve">
<g>
	<g>
		<g>
			<path fill-rule="evenodd" clip-rule="evenodd" fill="#FFFFFF" d="M0.474,5.332c0-2.666,2.048-4.829,4.571-4.829h189.835
				c2.602,0,4.572,2.164,4.572,4.829v19.319c0,2.665-1.971,4.831-4.572,4.831H5.044c-2.522,0-4.571-2.166-4.571-4.831"/>
			<path fill-rule="evenodd" clip-rule="evenodd" fill="#FFFFFF" d="M0.474,5.332c0-2.666,2.048-4.829,4.571-4.829h189.835
				c2.602,0,4.572,2.164,4.572,4.829v19.319c0,2.665-1.971,4.831-4.572,4.831H5.044c-2.522,0-4.571-2.166-4.571-4.831"/>
			<path fill="#D8D8D7" d="M1.025,24.651v0.417l0.158,0.833c0.458,1.841,2.128,2.971,3.861,3.081h189.835l0.475-0.084
				c1.65-0.023,3.252-1.645,3.547-3.331l0.078-0.417V4.916c-0.221-1.974-1.443-3.363-3.231-3.832h-0.394l-0.395-0.083H5.122
				c-1.009,0.12-0.993,0.105-1.969,0.5L2.207,2.251L1.498,3.25L1.34,3.667L1.183,3.999L1.025,4.832v0.5 M0,5.332l0.079-0.5V4.249
				l0.159-0.5c0.602-2.141,2.68-3.813,4.807-3.747h190.388c2.104,0.276,4.127,1.933,4.414,4.247l0.078,0.5l0.078,0.583v19.319
				l-0.078,0.499c-0.08,2.32-1.865,4.226-3.939,4.747l-0.553,0.083H5.044c-0.834,0.101-1.586-0.352-2.365-0.582l-0.394-0.333
				l-0.394-0.249c-0.519-0.322-1.276-1.482-1.496-2.083l-0.158-0.5l-0.159-0.999L0,24.651V5.332z"/>
			<path fill-rule="evenodd" clip-rule="evenodd" fill="#FFFFFF" d="M0.474,5.332c0-2.666,2.048-4.829,4.571-4.829h189.835
				c2.602,0,4.572,2.164,4.572,4.829v19.319c0,2.665-1.971,4.831-4.572,4.831H5.044c-2.522,0-4.571-2.166-4.571-4.831"/>
			<path fill-rule="evenodd" clip-rule="evenodd" fill="#FFFFFF" d="M0.474,5.332c0-2.666,2.048-4.829,4.571-4.829h189.835
				c2.602,0,4.572,2.164,4.572,4.829v19.319c0,2.665-1.971,4.831-4.572,4.831H5.044c-2.522,0-4.571-2.166-4.571-4.831"/>
			<path fill="#D8D8D7" d="M1.025,24.651v0.417l0.158,0.833c0.458,1.841,2.128,2.971,3.861,3.081h189.835l0.475-0.084
				c1.65-0.023,3.252-1.645,3.547-3.331l0.078-0.417V4.916c-0.221-1.974-1.443-3.363-3.231-3.832h-0.394l-0.395-0.083H5.122
				c-1.009,0.12-0.993,0.105-1.969,0.5L2.207,2.251L1.498,3.25L1.34,3.667L1.183,3.999L1.025,4.832v0.5 M0,5.332l0.079-0.5V4.249
				l0.159-0.5c0.602-2.141,2.68-3.813,4.807-3.747h190.388c2.104,0.276,4.127,1.933,4.414,4.247l0.078,0.5l0.078,0.583v19.319
				l-0.078,0.499c-0.08,2.32-1.865,4.226-3.939,4.747l-0.553,0.083H5.044c-0.834,0.101-1.586-0.352-2.365-0.582l-0.394-0.333
				l-0.394-0.249c-0.519-0.322-1.276-1.482-1.496-2.083l-0.158-0.5l-0.159-0.999L0,24.651V5.332z"/>
		</g>
	</g>
</g>
<text transform="matrix(1 0 0 1 4.2803 20.625)" fill="#BBBABA" font-family="'ArialMT'" font-size="12.0002">Search</text>
<path fill="#4D4640" stroke="#4D4640" stroke-width="0.7" stroke-miterlimit="10" d="M177.135,16.344
	c2.414,2.373,6.1,2.539,8.697,0.561l1.318,1.299l-0.027,0.027c-0.045,0.051-0.045,0.127,0.008,0.178
	c0.045,0.049,0.125,0.045,0.172-0.002l0.031-0.031c-0.031,0.105-0.006,0.225,0.076,0.309l6.826,6.721
	c0.121,0.121,0.316,0.117,0.43-0.01l1.322-1.396c0.115-0.123,0.11-0.32-0.01-0.438l-6.826-6.724c-0.086-0.08-0.203-0.1-0.307-0.066
	l0.082-0.086c0.047-0.051,0.047-0.129-0.004-0.176c-0.049-0.049-0.125-0.049-0.174,0l-0.049,0.053l-1.322-1.299
	c1.824-2.726,1.518-6.475-0.887-8.843c-2.682-2.639-6.951-2.555-9.535,0.186C174.375,9.339,174.456,13.703,177.135,16.344z
	 M177.792,7.422c2.143-2.27,5.678-2.335,7.9-0.15c2.217,2.185,2.287,5.8,0.145,8.069c-2.141,2.268-5.676,2.336-7.899,0.15
	C175.719,13.303,175.653,9.692,177.792,7.422z"/>
</svg>
