<?xml version="1.0" encoding="utf-8"?>
<!-- Generator: Adobe Illustrator 16.0.3, SVG Export Plug-In . SVG Version: 6.00 Build 0)  -->
<!DOCTYPE svg PUBLIC "-//W3C//DTD SVG 1.1//EN" "http://www.w3.org/Graphics/SVG/1.1/DTD/svg11.dtd">
<svg version="1.1" id="Layer_1" xmlns="http://www.w3.org/2000/svg" xmlns:xlink="http://www.w3.org/1999/xlink" x="0px" y="0px"
	 width="27.496px" height="29.828px" viewBox="0 0 27.496 29.828" enable-background="new 0 0 27.496 29.828" xml:space="preserve">
<g>
	<path fill="#353635" d="M24.571,29.702c0,0-0.785-1.951-1.313-2.825c-0.525-0.877-0.426-3.748-0.426-3.748s0.125-1.257,0.651-1.551
		c0.526-0.291,0.752-1.39,0.702-1.524c-0.05-0.137,1.055-1.796,1.654-2.65c0.603-0.852,2.909-7.63,0.752-11.267
		c-3.354-5.657-11.032-5.512-15.795-5.207C8.12,1.1,4.505,2.859,4.13,3.197C3.753,3.533,4.526,4.39,4.552,4.705
		s0.561,0.508,0.813,1.004c0.249,0.493-0.735,0.81-0.735,0.81S3.815,7.914,3.642,8.452c-0.178,0.539-0.641,2.599-0.717,2.958
		c-0.078,0.36,0.253,0.48,0.503,1.312c0.252,0.83-0.229,0.776-0.229,1.091c0,0.313,0.075,0.448-0.149,0.695
		c-0.229,0.247-1.356,1.618-1.356,1.618S0.892,17,0.591,17.496c-0.301,0.493-0.163,0.711,0,0.873
		c0.135,0.136,0.34,0.267,0.709,0.351c0.237,0.055,0.722,0.122,0.947,0.257c0.225,0.136,0.225,0.136,0.426,0.446
		c0.256,0.403,0.429,0.808,0.125,1.057c-0.125,0.102-0.275,0.426,0,0.629c0.275,0.202,0.852,0.202,0.852,0.202
		s-0.618,0.326-0.698,0.662c-0.089,0.374,0.241,0.421,0.421,0.595c0.144,0.142,0.301,0.185,0.359,0.552
		c0.038,0.226,0.032,0.259-0.004,0.468c-0.037,0.23-0.33,0.611-0.362,1.273c-0.036,0.801,0.843,0.979,1.325,1.119
		c0.377,0.11,3.899,0.502,4.602,0.538c0.426,0.021,0.225,0.112,0.277,0.314c0.049,0.202,0.173,0.72,0.35,0.967
		c0.176,0.246,0.426-0.274,1.127,0.577c0.706,0.854,0.797,1.452,0.797,1.452L24.571,29.702z"/>
	
		<linearGradient id="SVGID_1_" gradientUnits="userSpaceOnUse" x1="346" y1="-597.0298" x2="372.0996" y2="-597.0298" gradientTransform="matrix(1 0 0 -1 -346 -582.4873)">
		<stop  offset="0" style="stop-color:#FFFFFF"/>
		<stop  offset="1" style="stop-color:#FFFFFF"/>
	</linearGradient>
	<path fill="url(#SVGID_1_)" d="M23.179,28.881c-0.063-0.146-1.16-2.897-1.16-2.897c-0.51-0.874-0.412-3.737-0.412-3.737
		s0.122-1.252,0.627-1.544c0.51-0.291,0.725-1.388,0.676-1.521c-0.045-0.136,1.016-1.79,1.596-2.642
		c0.581-0.85,2.803-7.606,0.726-11.231C21.997-0.33,14.6-0.186,10.007,0.119C7.429,0.29,3.942,2.042,3.581,2.379
		C3.219,2.714,3.024,3.676,3.048,3.99c0.024,0.313,0.145,0.671,0.388,1.164c0.241,0.491,0.628,0.535,0.628,0.535
		S3.278,7.081,3.111,7.618c-0.169,0.537-0.616,2.591-0.689,2.949c-0.075,0.358-0.363,0.515-0.123,1.343
		c0.243,0.828,0.388,0.738,0.388,1.05c0,0.314,0.07,0.448-0.145,0.694c-0.221,0.246-1.307,1.612-1.307,1.612
		s-0.773,0.871-1.064,1.365c-0.289,0.491-0.157,0.708,0,0.87c0.132,0.136,0.328,0.266,0.687,0.351
		c0.228,0.054,0.693,0.12,0.911,0.256c0.218,0.134,0.218,0.134,0.41,0.445c0.247,0.4,0.412,0.804,0.12,1.053
		c-0.12,0.102-0.267,0.424,0,0.626s0.821,0.202,0.821,0.202s-0.596,0.325-0.674,0.66c-0.085,0.372,0.233,0.42,0.404,0.593
		c0.141,0.141,0.293,0.184,0.349,0.55c0.034,0.226,0.028,0.257-0.004,0.467c-0.038,0.229-0.319,0.608-0.351,1.269
		c-0.035,0.798,0.813,0.976,1.277,1.114c0.363,0.11,3.759,0.501,4.435,0.538c0.412,0.02,0.218,0.113,0.267,0.313
		c0.049,0.202,0.168,0.717,0.338,0.963c0.17,0.245,0.41-0.273,1.086,0.575c0.68,0.853,1.087,1.607,1.087,1.607L23.179,28.881z"/>
</g>
</svg>
